<?xml version="1.0" encoding="UTF-8" standalone="no"?>
<svg
   xmlns:dc="http://purl.org/dc/elements/1.1/"
   xmlns:cc="http://creativecommons.org/ns#"
   xmlns:rdf="http://www.w3.org/1999/02/22-rdf-syntax-ns#"
   xmlns:svg="http://www.w3.org/2000/svg"
   xmlns="http://www.w3.org/2000/svg"
   xmlns:sodipodi="http://sodipodi.sourceforge.net/DTD/sodipodi-0.dtd"
   xmlns:inkscape="http://www.inkscape.org/namespaces/inkscape"
   style="enable-background:new 0 0 512 512;"
   version="1.1"
   viewBox="0 0 512 512"
   xml:space="preserve"
   id="svg2"
   inkscape:version="0.91 r13725"
   sodipodi:docname="logo.svg"><metadata
     id="metadata24"><rdf:RDF><cc:Work
         rdf:about=""><dc:format>image/svg+xml</dc:format><dc:type
           rdf:resource="http://purl.org/dc/dcmitype/StillImage" /></cc:Work></rdf:RDF></metadata><defs
     id="defs22" /><sodipodi:namedview
     pagecolor="#ffffff"
     bordercolor="#666666"
     borderopacity="1"
     objecttolerance="10"
     gridtolerance="10"
     guidetolerance="10"
     inkscape:pageopacity="0"
     inkscape:pageshadow="2"
     inkscape:window-width="740"
     inkscape:window-height="480"
     id="namedview20"
     showgrid="false"
     inkscape:zoom="0.4609375"
     inkscape:cx="256"
     inkscape:cy="256"
     inkscape:window-x="618"
     inkscape:window-y="55"
     inkscape:window-maximized="0"
     inkscape:current-layer="g5" /><g
     id="home"><g
       id="g5"><circle
         cx="256"
         cy="256"
         r="253.44"
         id="circle7"
         style="fill:#ffffff" /><path
         d="M184.69,283.819c0.05,0.049,0.089,0.099,0.139,0.148c-0.05,0.029-0.089,0.049-0.139,0.079    c-0.049-0.05-0.089-0.099-0.139-0.149C184.601,283.879,184.641,283.849,184.69,283.819z"
         style="fill:#FFFFFF;"
         id="path9" /><path
         d="M327.478,283.859c-0.049,0.059-0.109,0.129-0.168,0.188c-0.059-0.04-0.119-0.07-0.178-0.099    c0.059-0.059,0.119-0.129,0.178-0.188C327.369,283.789,327.419,283.829,327.478,283.859z"
         style="fill:#FFFFFF;"
         id="path11" /><path
         d="M338.404,368.078H173.596c-6.637,0-12.017-5.38-12.017-12.017V235.365h188.841v120.696    C350.421,362.698,345.04,368.078,338.404,368.078z"
         style="fill:#2babe9;fill-opacity:1"
         id="path13" /><path
         d="M374.422,252.546c5.013,5.013,1.429,13.582-5.66,13.534l-111.874-0.757l-112.241-0.759    c-7.037-0.048-10.528-8.558-5.552-13.534l111.299-111.3c3.096-3.096,8.116-3.096,11.212,0L374.422,252.546z"
         style="fill:#2babe9;fill-opacity:1"
         id="path15" /><path
         d="M274.765,282.2h-37.53c-9.323,0-16.88,7.557-16.88,16.88v69.456h71.289V299.08    C291.645,289.757,284.087,282.2,274.765,282.2z"
         id="path17"
         style="fill:#ffffff" /></g></g><g
     id="Layer_1" /></svg>